<svg xmlns="http://www.w3.org/2000/svg" width="128" height="128" viewBox="0 0 128 128" role="img" aria-labelledby="title">
  <title>Startup Logo</title>
  <defs>
    <linearGradient id="g" x1="0" y1="0" x2="1" y2="1">
      <stop offset="0%" stop-color="#2563eb"/>
      <stop offset="100%" stop-color="#22c55e"/>
    </linearGradient>
  </defs>
  <rect width="128" height="128" rx="24" fill="url(#g)"/>
  <g fill="#fff" transform="translate(24 24)">
    <path d="M40 0c22.091 0 40 17.909 40 40s-17.909 40-40 40S0 62.091 0 40 17.909 0 40 0zm0 12c-15.464 0-28 12.536-28 28s12.536 28 28 28 28-12.536 28-28S55.464 12 40 12z" opacity=".25"/>
    <path d="M22 44c0-1.105.895-2 2-2h20a2 2 0 0 1 2 2v6a2 2 0 0 1-2 2H24a2 2 0 0 1-2-2v-6zm10-26a2 2 0 0 1 2-2h10a2 2 0 0 1 2 2v34h-8V24h-6a2 2 0 0 1-2-2z"/>
  </g>
</svg>


